<svg width="24" height="24" viewBox="0 0 24 24" fill="none" xmlns="http://www.w3.org/2000/svg">
<path d="M21.8718 0.90564H2.12989C1.45369 0.90564 0.905518 1.45381 0.905518 2.13001V21.8719C0.905518 22.5481 1.45369 23.0963 2.12989 23.0963H21.8718C22.548 23.0963 23.0961 22.5481 23.0961 21.8719V2.13001C23.0961 1.45381 22.548 0.90564 21.8718 0.90564Z" fill="#3D5A98"/>
<path d="M16.215 23.0944V14.5012H19.0987L19.53 11.1525H16.215V9.01498C16.215 8.04561 16.485 7.38373 17.8743 7.38373H19.6481V4.38373C18.7892 4.29438 17.926 4.25182 17.0625 4.25623C14.5087 4.25623 12.75 5.81248 12.75 8.68311V11.1525H9.86621V14.5012H12.75V23.0944H16.215Z" fill="white"/>
</svg>
